# xmcd CD database file
#
# Track frame offsets:
#       150
#       19539
#       28576
#       40982
#       80695
#       114553
#       127749
#       142092
#       146850
#       167976
#       182052
#       189042
#       199335
#       214661
#       229844
#       243027
#       257247
#       272195
#       282847
#       295775
#
# Disc length: 4111 seconds
#
# Revision: 1
# Processed by: cddbd v1.5.2PL0 Copyright (c) Steve Scherf et al.
# Submitted via: CDDBEditor PBVER-PBREV
#
DISCID=29100d14
DTITLE=Charles Trénet - Intégrale Vol. 10 CD1 (1949-1955)
DYEAR=2011
DGENRE=chanson
TTITLE0=Django Reinhardt - Stéphane Grapelli - La Mer (C. Trénet - A. Lasry)
TTITLE1=Benny Goodman - Credo Jazz - Charles Trénet - Comment sur la Mer (C. Trénet - A. Lasry)
TTITLE2=Benny Goodman and his orchestra - Beyond the sea (C. Trénet - A. Lasry)
TTITLE3=Grand Orchestre Symphonique de Paris - Wal-Berg - Un parisien à New York (Part I)
TTITLE4=Grand Orchestre Symphonique de Paris - Wal-Berg - Un parisien à New York (Part II) - prélude pour un récital
TTITLE5=Charles Trénet - En Avril à Paris (C. Trénet)
TTITLE6=Charles Trénet et Orchestre - Les Bruits de Paris (Lundi au lit) (C. Trénet)
TTITLE7=Charles Trénet et Orchestre - Si tu vas à la Varenne (C. Trénet)
TTITLE8=Charles Trénet et Orchestre - Boum (C. Trénet)
TTITLE9=Charles Trénet - Cadaques (C. Trénet)
TTITLE10=Charles Trénet - Vous souvenez-vous, grand maman ? (C. Trénet)
TTITLE11=Charles Trénet et Orchestre - Jacques Hélian - Paule, sur mes épaules (C. Trénet)
TTITLE12=Charles Trénet et Orchestre - Jacques Hélian - Coin de Rue (C. Trénet)
TTITLE13=Juliette Gréco et Orchestre - Michel Legrand - Coin de Rue (C. Trénet)
TTITLE14=Virginie Morgan - Charles Trénet - Coin de Rue (C. Trénet)
TTITLE15=Charles Trénet et Orchestre - Hubert Rostaing - Source Bleue (C. Trénet)
TTITLE16=Charles Trénet et Orchestre - Hubert Rostaing - Vous, qui passez sans me voir (C. Trénet, J. Hess)
TTITLE17=Charles Trénet et Orchestre - Hubert Rostaing - Marie-Thérèse (C. Trénet)
TTITLE18=Charles Trénet et Orchestre - Hubert Rostaing - Fermier Isidore (C. Trénet)
TTITLE19=Les Compagnons de la Chanson - Ma Maison (C. Trénet)
EXTD=
EXTT0=
EXTT1=
EXTT2=
EXTT3=
EXTT4=
EXTT5=
EXTT6=
EXTT7=
EXTT8=
EXTT9=
EXTT10=
EXTT11=
EXTT12=
EXTT13=
EXTT14=
EXTT15=
EXTT16=
EXTT17=
EXTT18=
EXTT19=
PLAYORDER=
